<?xml version="1.0" standalone="no"?>
<!DOCTYPE svg PUBLIC "-//W3C//DTD SVG 20010904//EN"
 "http://www.w3.org/TR/2001/REC-SVG-20010904/DTD/svg10.dtd">
<svg version="1.0" xmlns="http://www.w3.org/2000/svg"
 width="70.000000pt" height="70.000000pt" viewBox="0 0 70.000000 70.000000"
 preserveAspectRatio="xMidYMid meet">
<metadata>
Created by potrace 1.11, written by Peter Selinger 2001-2013
</metadata>
<g transform="translate(0.000000,70.000000) scale(0.100000,-0.100000)"
fill="#000000" stroke="none">
<path d="M0 350 l0 -350 350 0 350 0 0 350 0 350 -350 0 -350 0 0 -350z m265
200 c80 -49 73 -205 -10 -244 -121 -58 -229 104 -143 214 41 53 98 64 153 30z
m302 -2 c40 -28 57 -74 51 -140 -12 -121 -146 -158 -214 -59 -45 66 -26 162
39 201 42 26 83 25 124 -2z m-387 -308 c34 -24 130 -50 185 -50 56 0 152 26
182 50 30 24 49 25 56 5 7 -17 -29 -45 -99 -77 -70 -31 -209 -31 -277 -1 -70
32 -107 61 -100 78 7 20 20 19 53 -5z"/>
<path d="M150 498 c-14 -15 -20 -35 -20 -67 0 -53 22 -87 61 -96 31 -8 45 7
24 25 -8 7 -15 21 -15 31 0 21 40 51 61 47 19 -4 13 41 -8 64 -23 25 -77 23
-103 -4z"/>
<path d="M450 498 c-14 -15 -20 -35 -20 -67 0 -53 22 -87 61 -96 27 -7 48 8
29 20 -18 11 -11 64 10 75 11 6 25 8 30 5 16 -10 11 38 -6 63 -21 30 -76 30
-104 0z"/>
</g>
</svg>
