<?xml version="1.0" standalone="no"?>
<!DOCTYPE svg PUBLIC "-//W3C//DTD SVG 20010904//EN"
 "http://www.w3.org/TR/2001/REC-SVG-20010904/DTD/svg10.dtd">
<svg version="1.0" xmlns="http://www.w3.org/2000/svg"
 width="260.000000pt" height="260.000000pt" viewBox="0 0 260.000000 260.000000"
 preserveAspectRatio="xMidYMid meet">
<metadata>
Created by potrace 1.11, written by Peter Selinger 2001-2013
</metadata>
<g transform="translate(0.000000,260.000000) scale(0.100000,-0.100000)"
fill="#000000" stroke="none">
<path d="M0 1300 l0 -1300 1300 0 1300 0 0 1300 0 1300 -1300 0 -1300 0 0
-1300z m1516 792 c186 -65 326 -206 391 -394 33 -95 37 -269 9 -363 -43 -144
-135 -270 -254 -348 -126 -82 -234 -112 -381 -105 -531 27 -785 676 -413 1055
71 71 149 121 247 155 70 24 94 28 200 28 106 0 130 -4 201 -28z m174 -1532
l0 -141 -42 1 c-24 1 -54 -1 -68 -5 -35 -9 -76 25 -84 70 -16 85 42 163 100
136 23 -10 24 -9 24 34 0 45 0 45 35 45 l35 0 0 -140z m500 58 l1 -83 25 43
c22 36 31 42 60 42 40 0 40 -4 10 -50 l-24 -35 29 -57 29 -58 -42 0 c-41 0
-44 2 -65 48 l-21 47 -1 -47 -1 -48 -40 0 -40 0 0 140 0 140 40 0 40 0 0 -82z
m-1190 27 c0 -18 5 -25 20 -25 15 0 20 -7 20 -25 0 -18 -5 -25 -20 -25 -17 0
-20 -7 -20 -46 0 -36 4 -47 18 -51 10 -2 23 -13 30 -24 11 -17 9 -21 -15 -30
-34 -13 -80 -3 -93 21 -6 10 -10 44 -10 74 0 43 -3 56 -15 56 -9 0 -15 9 -15
25 0 16 6 25 15 25 8 0 15 9 15 19 0 19 15 27 53 30 12 1 17 -6 17 -24z m-510
-33 c31 -25 40 -120 16 -157 -24 -36 -53 -49 -82 -36 -23 10 -24 9 -24 -34 l0
-45 -40 0 -40 0 0 140 0 140 35 0 c19 0 35 -5 35 -11 0 -5 10 -3 22 5 29 21
51 20 78 -2z m194 0 c-1 -7 -2 -23 -2 -37 -2 -18 -8 -25 -22 -25 -26 0 -40
-29 -40 -84 0 -46 0 -46 -35 -46 l-35 0 0 100 0 100 29 0 c17 0 33 -5 36 -10
4 -7 14 -5 28 5 24 17 43 15 41 -3z m185 -16 c20 -20 25 -35 25 -76 0 -69 -34
-105 -99 -105 -64 0 -100 37 -100 104 0 51 20 85 60 102 32 14 87 2 114 -25z
m336 20 c41 -18 55 -42 55 -98 0 -79 -56 -121 -130 -99 -86 26 -96 162 -15
197 39 17 49 17 90 0z m245 -6 c17 -17 20 -33 20 -105 l0 -85 -35 0 -34 0 -3
73 c-2 56 -6 72 -18 72 -12 0 -16 -16 -18 -72 l-3 -73 -34 0 -35 0 0 100 0
100 30 0 c17 0 30 -5 30 -10 0 -6 12 -4 28 4 36 20 48 20 72 -4z m619 9 c34
-12 36 -16 18 -41 -9 -11 -22 -14 -40 -11 -21 4 -29 0 -38 -21 -19 -40 3 -80
38 -73 18 3 31 0 40 -11 18 -24 16 -28 -18 -42 -23 -10 -39 -10 -69 -1 -48 14
-70 43 -70 93 0 52 19 89 55 104 37 16 44 17 84 3z m-271 -77 c4 -99 26 -94
30 6 l3 72 34 0 35 0 0 -100 0 -100 -30 0 c-16 0 -30 5 -30 11 0 5 -10 3 -22
-5 -30 -21 -54 -20 -78 4 -17 17 -20 33 -20 106 l0 85 38 -3 37 -3 3 -73z"/>
<path d="M1176 2075 c-209 -53 -376 -218 -431 -425 -19 -71 -19 -208 0 -289
29 -122 138 -284 224 -334 l31 -18 0 268 -1 268 -41 20 c-86 43 -111 155 -52
233 56 73 179 83 233 19 10 -13 18 -12 64 5 62 24 193 22 242 -4 28 -15 31
-15 63 10 47 36 118 41 169 13 55 -32 76 -66 81 -131 5 -69 -23 -115 -85 -145
l-42 -20 -1 -268 0 -268 31 18 c85 49 191 207 224 333 23 88 16 250 -15 337
-58 166 -194 301 -361 360 -92 32 -243 40 -333 18z"/>
<path d="M962 1804 c-59 -41 -69 -124 -21 -179 43 -48 61 -45 82 13 9 27 36
70 59 97 l42 48 -23 18 c-29 24 -107 25 -139 3z"/>
<path d="M1538 1804 c-16 -8 -28 -16 -28 -18 0 -1 18 -22 40 -46 23 -25 49
-69 61 -101 l21 -58 27 14 c35 18 50 36 61 74 21 74 -37 151 -113 151 -23 -1
-54 -8 -69 -16z"/>
<path d="M1248 1796 c-59 -16 -119 -55 -152 -99 -52 -69 -56 -95 -56 -417 l0
-298 48 -20 c150 -64 338 -61 475 9 l38 20 -3 302 c-3 292 -4 304 -26 349 -26
53 -97 123 -146 143 -50 21 -126 26 -178 11z m-23 -126 c9 -29 -4 -60 -25 -60
-10 0 -22 9 -25 20 -9 29 4 60 25 60 10 0 22 -9 25 -20z m238 0 c9 -35 -3 -61
-27 -58 -21 3 -33 36 -22 64 8 21 43 17 49 -6z m-80 -101 c21 -5 53 -24 73
-41 95 -84 105 -214 22 -304 -136 -148 -374 -58 -373 141 1 146 134 244 278
204z"/>
<path d="M1235 1521 c-91 -56 -119 -146 -74 -238 57 -118 230 -127 305 -16 60
89 23 219 -73 259 -47 20 -122 18 -158 -5z m156 -81 c28 -16 23 -40 -18 -82
-47 -49 -71 -48 -117 2 -41 45 -42 52 -20 74 18 19 124 22 155 6z m-135 -155
c38 -19 87 -19 126 1 21 11 33 13 41 5 27 -27 -73 -69 -134 -56 -44 9 -79 32
-79 50 0 19 10 19 46 0z"/>
<path d="M1293 1383 l27 -28 27 28 28 27 -55 0 -55 0 28 -27z"/>
<path d="M1574 556 c-3 -8 -4 -29 -2 -48 2 -25 8 -33 23 -33 17 0 20 8 23 48
3 42 1 47 -18 47 -11 0 -23 -6 -26 -14z"/>
<path d="M400 520 c0 -43 3 -50 19 -50 13 0 21 9 26 30 9 40 -2 70 -26 70 -16
0 -19 -7 -19 -50z"/>
<path d="M774 557 c-3 -8 -4 -30 -2 -49 2 -25 8 -33 23 -33 17 0 20 7 20 45 0
35 -4 45 -18 48 -9 2 -20 -3 -23 -11z"/>
<path d="M1138 545 c-8 -41 2 -75 23 -75 12 0 21 10 25 25 9 37 -3 75 -25 75
-12 0 -20 -9 -23 -25z"/>
</g>
</svg>
